<svg width="16" height="33" viewBox="0 0 16 33" fill="none" xmlns="http://www.w3.org/2000/svg">
<path d="M5.48863 8.62969C5.48863 8.62969 7.0395 6.63071 6.03651 3.85454C5.03002 1.08012 2.6862 0.0263672 2.6862 0.0263672C2.6862 0.0263672 0.932281 2.40869 1.91252 5.11309C2.891 7.81925 5.48863 8.62969 5.48863 8.62969ZM5.48688 14.7229C5.48688 14.7229 6.37784 12.3546 4.60116 10.0003C2.82099 7.64421 0.272372 7.32738 0.272372 7.32738C0.272372 7.32738 -0.700863 10.1211 1.03205 12.4176C2.76497 14.7159 5.48688 14.7229 5.48688 14.7229ZM7.47536 20.9719C7.47536 20.9719 7.81669 18.4653 5.56215 16.5644C3.3041 14.6616 0.748486 14.9207 0.748486 14.9207C0.748486 14.9207 0.419407 17.8614 2.61794 19.7151C4.81997 21.5671 7.47536 20.9719 7.47536 20.9719ZM10.5036 26.1392C10.5036 26.1392 10.0747 23.6466 7.34758 22.5193C4.61867 21.3885 2.2626 22.409 2.2626 22.409C2.2626 22.409 2.84024 25.3112 5.49738 26.414C8.15452 27.5115 10.5036 26.1392 10.5036 26.1392ZM11.8269 28.2852C8.98422 27.4905 6.76469 28.784 6.76469 28.784C6.76469 28.784 7.68366 31.5952 10.4528 32.3707C13.2255 33.1461 15.3925 31.5025 15.3925 31.5025C15.3925 31.5025 14.6696 29.0781 11.8269 28.2852Z" fill="#212121"/>
</svg>
