<svg width="23" height="47" viewBox="0 0 23 47" fill="none" xmlns="http://www.w3.org/2000/svg">
<path d="M7.87055 12.375C7.87055 12.375 10.0945 9.50854 8.6562 5.52759C7.21292 1.54914 3.85195 0.0380859 3.85195 0.0380859C3.85195 0.0380859 1.33687 3.45428 2.7425 7.33232C4.14562 11.2129 7.87055 12.375 7.87055 12.375ZM7.86804 21.1126C7.86804 21.1126 9.14566 17.7164 6.59795 14.3404C4.04522 10.9619 0.390574 10.5075 0.390574 10.5075C0.390574 10.5075 -1.00502 14.5136 1.47994 17.8068C3.9649 21.1025 7.86804 21.1126 7.86804 21.1126ZM10.7195 30.0735C10.7195 30.0735 11.2089 26.4791 7.97597 23.7531C4.738 21.0247 1.07331 21.3962 1.07331 21.3962C1.07331 21.3962 0.601419 25.6131 3.75405 28.2712C6.91171 30.9269 10.7195 30.0735 10.7195 30.0735ZM15.0619 37.4832C15.0619 37.4832 14.4469 33.9088 10.5362 32.2924C6.62305 30.6709 3.24451 32.1342 3.24451 32.1342C3.24451 32.1342 4.07283 36.2959 7.8831 37.8772C11.6934 39.451 15.0619 37.4832 15.0619 37.4832ZM16.9595 40.5605C12.8831 39.4209 9.70039 41.2759 9.70039 41.2759C9.70039 41.2759 11.0182 45.307 14.9891 46.419C18.965 47.5309 22.0725 45.174 22.0725 45.174C22.0725 45.174 21.0358 41.6976 16.9595 40.5605Z" fill="white"/>
</svg>
