<svg width="17" height="17" viewBox="0 0 17 17" fill="none" xmlns="http://www.w3.org/2000/svg">
<g clip-path="url(#clip0_534_2255)">
<path fill-rule="evenodd" clip-rule="evenodd" d="M7.59234 9.69526C6.90406 9.00823 6.294 8.24773 5.77546 7.42779C5.58612 7.12832 5.58812 6.76854 5.78065 6.47123L6.52065 5.32873C6.67853 5.08485 6.70865 4.8066 6.60659 4.53467L5.33371 1.1422C5.1344 0.610915 4.50353 0.400696 4.02531 0.706228L2.24953 1.84079C1.43912 2.3586 1.06287 3.28942 1.28612 4.22488C1.97321 7.10413 3.47184 9.69526 5.54312 11.7445C7.59234 13.8158 10.1834 15.3144 13.0627 16.0015C13.9982 16.2247 14.929 15.8485 15.4468 15.0381L16.5814 13.2623C16.8869 12.7841 16.6767 12.1532 16.1454 11.9539L12.753 10.681C12.481 10.5789 12.2028 10.6091 11.9589 10.7669L10.8164 11.5069C10.5191 11.6995 10.1593 11.7015 9.85984 11.5121C9.03987 10.9936 8.27937 10.3835 7.59234 9.69526Z" fill="#212121"/>
</g>
<defs>
<clipPath id="clip0_534_2255">
<rect width="16" height="16" fill="white" transform="translate(0.972656 0.314941)"/>
</clipPath>
</defs>
</svg>
