<svg width="25" height="25" viewBox="0 0 25 25" fill="none" xmlns="http://www.w3.org/2000/svg">
<path d="M12.7094 15.0071V14.1493C12.7099 13.8239 12.6462 13.5017 12.5219 13.2009C12.3976 12.9002 12.2152 12.627 11.9852 12.397C11.7551 12.1669 11.4819 11.9845 11.1812 11.8602C10.8805 11.7359 10.5582 11.6722 10.2328 11.6727L10.7719 11.2993C11.2052 11.0056 11.56 10.6104 11.8056 10.1481C12.0511 9.68575 12.1798 9.17041 12.1805 8.64695C12.1833 8.24208 12.1049 7.84076 11.9501 7.46666C11.7952 7.09256 11.567 6.75328 11.2789 6.46883C10.9943 6.18037 10.6548 5.9519 10.2804 5.79691C9.90606 5.64193 9.5044 5.56357 9.09922 5.56648H1.5625V19.1001H8.61562C9.70085 19.0984 10.7411 18.6666 11.5085 17.8992C12.2759 17.1319 12.7077 16.0915 12.7094 15.0063V15.0071ZM4.43438 7.81102H7.92266C8.78047 7.81102 9.47422 8.50398 9.47422 9.36258C9.47442 9.56639 9.43443 9.76824 9.35653 9.95658C9.27863 10.1449 9.16435 10.316 9.02024 10.4602C8.87612 10.6043 8.70499 10.7186 8.51666 10.7965C8.32832 10.8744 8.12647 10.9143 7.92266 10.9141H4.43438V7.81102ZM4.43438 16.9329V13.0485H8.06563C8.32068 13.0485 8.57323 13.0988 8.80887 13.1964C9.0445 13.294 9.25861 13.437 9.43896 13.6174C9.61931 13.7977 9.76237 14.0118 9.85997 14.2475C9.95758 14.4831 10.0078 14.7357 10.0078 14.9907C10.0078 15.2458 9.95758 15.4983 9.85997 15.7339C9.76237 15.9696 9.61931 16.1837 9.43896 16.364C9.25861 16.5444 9.0445 16.6874 8.80887 16.7851C8.57323 16.8827 8.32068 16.9329 8.06563 16.9329H4.43438ZM18.4531 8.98836C15.7023 8.98836 13.4688 11.3212 13.4688 14.204C13.4688 17.0868 15.7023 19.4305 18.4531 19.4305C20.5984 19.4305 22.4359 18.0009 23.1297 15.9977H20.7188C20.1359 17.4501 18.4523 17.2087 18.4523 17.2087C16.1195 17.0321 16.207 14.7985 16.207 14.7985H23.4039C23.4258 14.6001 23.4367 14.4024 23.4367 14.204C23.4367 11.3212 21.2023 8.98836 18.4523 8.98836H18.4531ZM16.4172 13.0485C16.4178 12.4826 16.6429 11.9401 17.043 11.54C17.4432 11.1398 17.9857 10.9148 18.5516 10.9141C18.8327 10.9132 19.1112 10.9677 19.3712 11.0745C19.6313 11.1813 19.8677 11.3383 20.067 11.5365C20.2663 11.7347 20.4246 11.9703 20.5328 12.2297C20.641 12.4892 20.697 12.7674 20.6977 13.0485H16.4172ZM15.7422 6.48289H21.3422V7.80945H15.7422V6.48289Z" fill="#212121"/>
</svg>
