<svg width="125" height="490" viewBox="0 0 125 490" fill="none" xmlns="http://www.w3.org/2000/svg">
<path d="M57.1228 0H1.42639C5.43332 127.344 104.872 154.909 154.091 152.773V94.7071C75.3944 97.9108 56.6553 32.9039 57.1228 0Z" fill="white"/>
<path d="M158.498 71.0804L157.296 13.8156C282.633 8.85001 314.902 113.328 315.37 166.188V344.99C301.746 452.312 219.404 485.95 179.935 489.354C43.8598 499.285 3.69698 392.31 0.625 337.582V147.567H56.5217V337.582C69.3439 396.849 107.41 443.101 179.935 432.289C237.956 423.639 255.533 370.486 257.069 344.99V242.074C258.671 224.187 259.433 176.279 249.656 127.745C239.879 79.2096 184.81 69.7456 158.498 71.0804Z" fill="white"/>
</svg>
