<svg width="76" height="51" viewBox="0 0 76 51" fill="none" xmlns="http://www.w3.org/2000/svg">
<path d="M52.6587 32.6947L50.6446 31.5037C50.5961 31.475 50.5372 31.4652 50.4772 31.4759L43.2342 32.763C43.1742 32.7736 43.1165 32.8042 43.0701 32.8498L41.1461 34.7405C41.0083 34.8759 41.0146 35.0918 41.1588 35.1771L43.1729 36.368C43.2215 36.3967 43.2804 36.4065 43.3403 36.3959L50.5834 35.1087C50.6434 35.0981 50.701 35.0676 50.7474 35.022L52.6715 33.1312C52.8093 32.9958 52.8029 32.7799 52.6587 32.6947Z" fill="#212121"/>
<path d="M52.6587 38.3423L50.6446 37.1514C50.5961 37.1227 50.5372 37.1129 50.4772 37.1235L43.2342 38.4106C43.1742 38.4213 43.1165 38.4518 43.0701 38.4974L41.1461 40.3882C41.0083 40.5235 41.0146 40.7394 41.1588 40.8247L43.1729 42.0156C43.2215 42.0444 43.2804 42.0542 43.3403 42.0435L50.5834 40.7564C50.6434 40.7457 50.701 40.7152 50.7474 40.6696L52.6715 38.7789C52.8093 38.6435 52.8029 38.4276 52.6587 38.3423Z" fill="#212121"/>
<path d="M46.5057 50.5955C46.6679 50.8765 47.0736 50.8765 47.2358 50.5955L50.5215 44.9045C50.6837 44.6235 50.4809 44.2722 50.1564 44.2722H43.5851C43.2606 44.2722 43.0578 44.6235 43.22 44.9045L46.5057 50.5955Z" fill="#212121"/>
<path d="M43.6777 29.9985L43.7014 0.735352H67.4799L75.3596 5.38999V20.3342L67.4562 24.8991H50.491V29.9985H43.6777ZM50.491 6.95706V18.7671H68.5463V6.95706H50.491Z" fill="#212121"/>
<path d="M22.2938 39.8807L17.8891 31.9067H37.2157L32.8651 39.8807H22.2938Z" fill="#212121"/>
<path fill-rule="evenodd" clip-rule="evenodd" d="M12.0567 0.735352H34.892L39.7867 8.97901H7.29626L12.0567 0.735352ZM13.7339 4.78977C14.2844 4.78977 14.7306 4.34351 14.7306 3.79302C14.7306 3.24253 14.2844 2.79627 13.7339 2.79627C13.1834 2.79627 12.7371 3.24253 12.7371 3.79302C12.7371 4.34351 13.1834 4.78977 13.7339 4.78977Z" fill="#212121"/>
<path fill-rule="evenodd" clip-rule="evenodd" d="M6.52871 10.2586L15.8281 10.2672L5.26587 28.6865L0.5 20.7006L6.52871 10.2586ZM4.99617 21.139C5.27142 20.6623 5.10807 20.0527 4.63133 19.7774C4.1546 19.5022 3.54499 19.6655 3.26975 20.1423C2.9945 20.619 3.15784 21.2286 3.63458 21.5039C4.11132 21.7791 4.72093 21.6158 4.99617 21.139Z" fill="#212121"/>
<path fill-rule="evenodd" clip-rule="evenodd" d="M10.7239 21.0869C10.5454 21.6122 7.52617 27.0344 6.03888 29.5882L11.7064 39.8927H21.0658L10.7239 21.0869ZM13.476 37.7644C14.0265 37.7644 14.4727 37.3182 14.4727 36.7677C14.4727 36.2172 14.0265 35.7709 13.476 35.7709C12.9255 35.7709 12.4792 36.2172 12.4792 36.7677C12.4792 37.3182 12.9255 37.7644 13.476 37.7644Z" fill="#212121"/>
</svg>
