<svg width="25" height="21" viewBox="0 0 25 21" fill="none" xmlns="http://www.w3.org/2000/svg">
<g clip-path="url(#clip0_534_715)">
<path fill-rule="evenodd" clip-rule="evenodd" d="M19.2076 0H1.7955C1.3193 0 0.862611 0.189168 0.52589 0.52589C0.189168 0.862611 0 1.3193 0 1.7955L0 19.2045C0 19.6807 0.189168 20.1374 0.52589 20.4741C0.862611 20.8108 1.3193 21 1.7955 21H19.2076C19.6833 20.9992 20.1392 20.8096 20.4752 20.473C20.8113 20.1364 21 19.6802 21 19.2045V1.7955C21 1.31985 20.8113 0.863633 20.4752 0.527002C20.1392 0.190371 19.6833 0.000834475 19.2076 0ZM19.6066 13.5061C19.6055 15.1227 18.9625 16.6727 17.8189 17.8153C16.6753 18.9579 15.1248 19.5996 13.5082 19.5993H7.5054C5.88911 19.5993 4.339 18.9573 3.19596 17.8146C2.05293 16.6719 1.41057 15.1219 1.41015 13.5056V7.4907C1.41008 6.69029 1.5677 5.89771 1.874 5.15823C2.18031 4.41874 2.62929 3.74685 3.19532 3.18092C3.76134 2.615 4.43331 2.16613 5.17285 1.85995C5.91238 1.55378 6.70499 1.39629 7.5054 1.3965H13.5214C15.1379 1.39678 16.6882 2.03882 17.8316 3.18153C18.975 4.32425 19.618 5.87416 19.6192 7.4907L19.6056 13.5056L19.6066 13.5061Z" fill="#212121"/>
<path d="M23.3556 7.11035e-05C23.5834 0.000596104 23.8076 0.0588711 24.0066 0.169121C24.215 0.279371 24.3867 0.447896 24.5001 0.653696C24.6142 0.853564 24.6743 1.07976 24.6743 1.30995C24.6743 1.54013 24.6142 1.76633 24.5001 1.9662C24.3861 2.17095 24.2166 2.34 24.0097 2.4534C23.809 2.56607 23.5826 2.6252 23.3524 2.62507C23.1279 2.6207 22.908 2.56063 22.7124 2.45025C22.5073 2.33706 22.3384 2.16816 22.2252 1.96305C22.1097 1.76364 22.0488 1.53726 22.0488 1.3068C22.0488 1.07633 22.1097 0.849949 22.2252 0.650546C22.3371 0.443696 22.5061 0.272546 22.7124 0.157571C22.9102 0.0519223 23.1314 -0.00224214 23.3556 7.11035e-05ZM23.3556 0.215321C23.1657 0.216832 22.9792 0.265929 22.8132 0.358121C22.64 0.451046 22.4972 0.591221 22.4011 0.762371C22.3057 0.928982 22.2554 1.11766 22.2554 1.30968C22.2554 1.5017 22.3057 1.69039 22.4011 1.857C22.4956 2.02762 22.6379 2.1678 22.8106 2.26125C22.9772 2.35721 23.1662 2.40771 23.3585 2.40771C23.5507 2.40771 23.7397 2.35721 23.9063 2.26125C24.0785 2.1678 24.2208 2.02762 24.3158 1.857C24.4113 1.69039 24.4615 1.5017 24.4615 1.30968C24.4615 1.11766 24.4113 0.928982 24.3158 0.762371C24.2203 0.590491 24.0769 0.450051 23.9031 0.358121C23.7356 0.265076 23.5472 0.215951 23.3556 0.215321ZM22.8306 1.98615V0.573371H23.3178C23.4401 0.567596 23.5629 0.580196 23.6811 0.610121C23.7546 0.634796 23.8176 0.683621 23.8596 0.748196C23.8946 0.799181 23.9164 0.858039 23.9231 0.919511C23.9297 0.980984 23.9211 1.04316 23.8979 1.10047C23.8786 1.14688 23.85 1.18886 23.8139 1.22385C23.7377 1.30223 23.6343 1.34829 23.5251 1.35247C23.5697 1.36983 23.6108 1.39508 23.6464 1.42702C23.7267 1.51522 23.7976 1.61077 23.8569 1.71367L24.0302 2.00032H23.7414L23.6154 1.77667C23.5557 1.65351 23.4745 1.54203 23.3755 1.4475C23.3208 1.41209 23.2563 1.39499 23.1912 1.39867H23.0558V2.00032L22.8306 1.98615ZM23.0584 1.1892H23.3472C23.4414 1.19906 23.5363 1.17806 23.6175 1.12935C23.6415 1.11144 23.6609 1.08802 23.674 1.06106C23.687 1.03411 23.6934 1.00441 23.6926 0.974471C23.6941 0.933917 23.6809 0.894196 23.6553 0.862646C23.6319 0.828807 23.5988 0.802826 23.5603 0.788096C23.4853 0.766627 23.4072 0.75793 23.3293 0.762371H23.0668L23.0584 1.1892Z" fill="#212121"/>
</g>
<defs>
<clipPath id="clip0_534_715">
<rect width="24.675" height="21" fill="white"/>
</clipPath>
</defs>
</svg>
