<svg width="15" height="18" viewBox="0 0 15 18" fill="none" xmlns="http://www.w3.org/2000/svg">
<path d="M7.97312 0.814941C4.86556 0.814941 2.3457 3.37267 2.3457 6.52718C2.3457 9.13772 4.47598 11.6256 6.11549 13.1531C6.61935 13.6249 7.28322 13.8873 7.97282 13.8873C8.66242 13.8873 9.32628 13.6249 9.83014 13.1531C11.469 11.6256 13.5999 9.13772 13.5999 6.52718C13.6005 3.37267 11.0807 0.814941 7.97312 0.814941ZM7.97312 8.9562C7.30979 8.9562 6.67364 8.69216 6.20459 8.22217C5.73555 7.75218 5.47205 7.11474 5.47205 6.45008C5.47205 5.78541 5.73555 5.14797 6.20459 4.67798C6.67364 4.20799 7.30979 3.94395 7.97312 3.94395C8.63645 3.94395 9.2726 4.20799 9.74165 4.67798C10.2107 5.14797 10.4742 5.78541 10.4742 6.45008C10.4742 7.11474 10.2107 7.75218 9.74165 8.22217C9.2726 8.69216 8.63645 8.9562 7.97312 8.9562Z" fill="#212121"/>
<path d="M14.0594 12.5561L12.5132 11.8579C11.921 12.6056 11.2722 13.3065 10.5725 13.9542C9.86673 14.6138 8.93752 14.9806 7.97239 14.9806C7.00726 14.9806 6.07805 14.6138 5.37226 13.9542C4.67293 13.3063 4.02434 12.6055 3.43223 11.8579L1.88602 12.5561C0.668201 13.1061 0.668201 14.8394 1.88602 15.39L6.59795 17.5185C7.47224 17.9132 8.47315 17.9132 9.34683 17.5185L14.0588 15.39C15.2772 14.8394 15.2772 13.1061 14.0594 12.5561Z" fill="#212121"/>
</svg>
