<svg width="303" height="84" viewBox="0 0 303 84" fill="none" xmlns="http://www.w3.org/2000/svg">
<path d="M100.764 62.2614C97.5006 57.2078 94.8943 53.5072 92.9445 51.1594C90.9947 48.7719 89.2239 47.1803 87.6323 46.3844C86.0804 45.5488 84.2102 45.131 82.0216 45.131H81.9619V62.2614H72.6506V20.4799H81.9619V36.7747H82.0813C84.2301 36.7747 86.0804 36.3768 87.6323 35.5809C89.1841 34.7851 90.8753 33.2531 92.7057 30.985C94.5759 28.7168 97.043 25.2152 100.107 20.4799H110.672C107.369 25.812 104.703 29.7713 102.674 32.3578C100.684 34.9443 98.8535 36.7747 97.1823 37.8491C95.511 38.8837 93.5811 39.5004 91.3926 39.6994V42.266C93.7801 42.4251 95.8493 43.0618 97.6001 44.176C99.3907 45.2504 101.341 47.1405 103.45 49.8463C105.598 52.5521 108.404 56.6905 111.865 62.2614H100.764Z" fill="white"/>
<path d="M132.085 62.2017C130.732 62.321 129.479 62.3807 128.325 62.3807C123.868 62.3807 120.685 61.4655 118.775 59.6351C116.865 57.8047 115.91 54.8402 115.91 50.7416V20.4799H124.744V49.4285C124.744 51.2987 125.022 52.5919 125.579 53.3082C126.176 53.9847 127.37 54.3229 129.161 54.3229C129.996 54.3229 130.971 54.2632 132.085 54.1438V62.2017Z" fill="white"/>
<path d="M145.244 62.9776C141.902 62.9776 139.235 62.2017 137.246 60.6498C135.296 59.0581 134.321 56.9292 134.321 54.2632C134.321 51.7165 135.177 49.6274 136.888 47.996C138.599 46.3645 140.947 45.3896 143.931 45.0713L153.541 44.1163C154.695 43.9969 155.59 43.6786 156.227 43.1613C156.903 42.6042 157.241 41.9078 157.241 41.0722C157.241 40.0774 156.744 39.3015 155.749 38.7444C154.754 38.1873 153.362 37.9088 151.571 37.9088C149.661 37.9088 148.089 38.2669 146.856 38.9831C145.662 39.6596 144.906 40.6544 144.587 41.9675H135.873C136.51 38.625 138.181 36.0385 140.887 34.2081C143.632 32.3379 147.154 31.4028 151.452 31.4028C156.107 31.4028 159.688 32.517 162.195 34.7453C164.742 36.9339 166.015 40.0774 166.015 44.176V52.5323C166.015 53.6066 166.294 54.3229 166.851 54.681C167.408 54.9993 168.502 55.0988 170.134 54.9795V62.2614C169.139 62.3807 168.204 62.4404 167.329 62.4404C162.872 62.4404 160.643 60.9084 160.643 57.8445C160.643 57.0088 160.783 56.1533 161.061 55.2779C159.18 56.8524 155.729 59.2969 153.421 60.7692C151.153 62.2415 148.427 62.9776 145.244 62.9776ZM147.572 56.5313C150.039 56.5313 152.208 55.7554 154.078 54.2035C155.988 52.6516 157.44 50.4631 158.435 47.6379C157.418 47.8472 155.461 48.6303 153.894 49.0218C152.775 49.3314 151.77 49.528 150.258 49.7269L146.975 50.1447C145.702 50.3039 144.707 50.6819 143.991 51.2788C143.314 51.8757 142.976 52.6317 142.976 53.5469C142.976 54.4622 143.374 55.1983 144.17 55.7554C144.966 56.2727 146.1 56.5313 147.572 56.5313Z" fill="white"/>
<path d="M193.674 62.142C191.565 62.3409 189.814 62.4404 188.421 62.4404C185.477 62.4404 183.149 62.0624 181.438 61.3063C179.727 60.5105 178.493 59.2969 177.737 57.6654C176.981 55.9941 176.603 53.7658 176.603 50.9804V39.4606H171.291V32.1787C173.161 32.1787 174.574 31.94 175.529 31.4625C176.523 30.9452 177.2 30.0897 177.558 28.8959C177.956 27.6624 178.155 25.8717 178.155 23.524H186.75C186.591 25.7524 186.113 27.4634 185.317 28.6572C184.561 29.8111 183.169 30.9651 181.139 32.1191L182.966 32.1787C185.12 32.1191 185.437 32.1191 187.273 32.1787C188.839 32.1191 190.868 32.0793 193.495 32.1191V39.4606H185.437V50.6222C185.437 52.1741 185.755 53.2684 186.392 53.9051C187.028 54.5417 188.222 54.8601 189.973 54.8601C190.769 54.8601 192.002 54.7606 193.674 54.5616V62.142Z" fill="white"/>
<path d="M214.162 63.0373C210.979 63.0373 208.114 62.3608 205.567 61.0079C203.02 59.6152 201.011 57.7251 199.539 55.3376C198.106 52.9103 197.39 50.2044 197.39 47.22C197.39 44.2357 198.106 41.5497 199.539 39.1622C201.011 36.7349 203.02 34.8448 205.567 33.4919C208.114 32.0992 210.979 31.4028 214.162 31.4028C216.987 31.4028 219.574 31.94 221.921 33.0144C224.309 34.0887 226.279 35.5809 227.83 37.4909C229.382 39.401 230.377 41.5895 230.815 44.0566H222.459C221.862 42.4251 220.847 41.1518 219.415 40.2366C218.022 39.3214 216.39 38.8638 214.52 38.8638C212.053 38.8638 210.024 39.6397 208.432 41.1916C206.88 42.7435 206.104 44.753 206.104 47.22C206.104 49.6871 206.88 51.6966 208.432 53.2485C209.984 54.7606 212.013 55.5166 214.52 55.5166C216.51 55.5166 218.221 55.0192 219.653 54.0244C221.126 52.9899 222.12 51.5971 222.638 49.8463H230.934C230.536 52.393 229.561 54.681 228.01 56.7104C226.458 58.7 224.488 60.2519 222.1 61.366C219.713 62.4802 217.067 63.0373 214.162 63.0373Z" fill="white"/>
<path d="M251.497 63.0373C248.274 63.0373 245.369 62.3608 242.782 61.0079C240.236 59.6152 238.226 57.7251 236.754 55.3376C235.321 52.9501 234.605 50.2442 234.605 47.22C234.605 44.1959 235.321 41.49 236.754 39.1025C238.226 36.6752 240.256 34.7851 242.842 33.4322C245.428 32.0793 248.333 31.4028 251.556 31.4028C254.819 31.4028 257.744 32.0992 260.33 33.4919C262.917 34.8448 264.926 36.7349 266.359 39.1622C267.791 41.5497 268.508 44.2556 268.508 47.2797C268.508 48.1552 268.448 49.0505 268.329 49.9657H243.2C243.598 51.8757 244.533 53.4077 246.005 54.5616C247.518 55.7156 249.348 56.2926 251.497 56.2926C253.088 56.2926 254.521 55.9941 255.794 55.3973C257.068 54.7606 258.102 53.8653 258.898 52.7113H267.672C266.478 55.8947 264.429 58.4214 261.524 60.2917C258.659 62.1221 255.317 63.0373 251.497 63.0373ZM260.032 44.5341C259.594 42.5445 258.619 40.9727 257.107 39.8188C255.595 38.6648 253.745 38.0878 251.556 38.0878C249.368 38.0878 247.518 38.6847 246.005 39.8785C244.533 41.0324 243.578 42.5843 243.14 44.5341H260.032Z" fill="white"/>
<path d="M272.353 32.1191H281.067C280.988 33.273 280.789 34.3275 280.471 35.2825C280.192 36.2375 279.714 37.292 279.038 38.4459L281.485 39.7591C282.679 36.9737 284.151 34.9045 285.902 33.5516C287.693 32.1986 289.822 31.5222 292.289 31.5222C295.671 31.5222 298.297 32.7159 300.167 35.1034C302.038 37.4909 302.973 40.8136 302.973 45.0713V62.2614H294.139V46.6232C294.139 44.1561 293.582 42.2859 292.468 41.0125C291.393 39.6994 289.802 39.0428 287.693 39.0428C285.584 39.0428 283.972 39.6994 282.858 41.0125C281.744 42.2859 281.187 44.1561 281.187 46.6232V62.2614H272.353V32.1191Z" fill="white"/>
<path d="M9.65086 0H0.136892C0.82135 21.7527 17.8073 26.4612 26.2147 26.0964V16.1777C12.772 16.725 9.57101 5.62059 9.65086 0Z" fill="white"/>
<path d="M26.9677 12.1418L26.7623 2.35996C48.1722 1.51175 53.6843 19.3586 53.7642 28.388V58.9307C51.437 77.2632 37.3714 83.0092 30.6295 83.5906C7.3853 85.2871 0.524751 67.0139 0 57.6652V25.2072H9.54819V57.6652C11.7385 67.7891 18.2408 75.6899 30.6295 73.843C40.5405 72.3654 43.5429 63.2858 43.8053 58.9307V41.3507C44.0791 38.2953 44.2092 30.1118 42.5391 21.8211C40.869 13.5305 31.4623 11.9138 26.9677 12.1418Z" fill="white"/>
</svg>
