<svg width="303" height="84" viewBox="0 0 303 84" fill="none" xmlns="http://www.w3.org/2000/svg">
<path d="M100.763 62.2614C97.5004 57.2078 94.894 53.5072 92.9442 51.1595C90.9944 48.772 89.2237 47.1803 87.632 46.3845C86.0801 45.5488 84.2099 45.131 82.0214 45.131H81.9617V62.2614H72.6504V20.48H81.9617V36.7747H82.0811C84.2298 36.7747 86.0801 36.3768 87.632 35.581C89.1839 34.7851 90.875 33.2532 92.7055 30.985C94.5757 28.7169 97.0428 25.2152 100.107 20.48H110.671C107.369 25.8121 104.703 29.7714 102.673 32.3578C100.684 34.9443 98.8533 36.7747 97.182 37.8491C95.5108 38.8837 93.5809 39.5005 91.3923 39.6994V42.266C93.7798 42.4252 95.849 43.0618 97.5999 44.176C99.3905 45.2504 101.34 47.1405 103.449 49.8463C105.598 52.5522 108.403 56.6905 111.865 62.2614H100.763Z" fill="#212121"/>
<path d="M132.085 62.2017C130.732 62.3211 129.479 62.3808 128.325 62.3808C123.868 62.3808 120.685 61.4656 118.775 59.6351C116.865 57.8047 115.91 54.8402 115.91 50.7417V20.48H124.743V49.4285C124.743 51.2987 125.022 52.592 125.579 53.3082C126.176 53.9847 127.37 54.3229 129.16 54.3229C129.996 54.3229 130.971 54.2632 132.085 54.1439V62.2017Z" fill="#212121"/>
<path d="M145.244 62.9776C141.901 62.9776 139.235 62.2017 137.246 60.6498C135.296 59.0582 134.321 56.9293 134.321 54.2632C134.321 51.7166 135.176 49.6275 136.888 47.996C138.599 46.3646 140.946 45.3897 143.931 45.0713L153.54 44.1163C154.694 43.9969 155.59 43.6786 156.226 43.1613C156.903 42.6042 157.241 41.9079 157.241 41.0722C157.241 40.0775 156.744 39.3015 155.749 38.7444C154.754 38.1873 153.361 37.9088 151.571 37.9088C149.661 37.9088 148.089 38.2669 146.855 38.9832C145.662 39.6596 144.906 40.6544 144.587 41.9676H135.873C136.509 38.625 138.181 36.0386 140.887 34.2082C143.632 32.3379 147.154 31.4028 151.451 31.4028C156.107 31.4028 159.688 32.517 162.195 34.7453C164.742 36.9339 166.015 40.0775 166.015 44.176V52.5323C166.015 53.6067 166.294 54.3229 166.851 54.681C167.408 54.9994 168.502 55.0989 170.134 54.9795V62.2614C169.139 62.3808 168.204 62.4405 167.328 62.4405C162.872 62.4405 160.643 60.9085 160.643 57.8445C160.643 57.0089 160.783 56.1534 161.061 55.2779C159.18 56.8525 155.729 59.2969 153.421 60.7692C151.153 62.2415 148.427 62.9776 145.244 62.9776ZM147.572 56.5314C150.039 56.5314 152.207 55.7554 154.078 54.2035C155.988 52.6517 157.44 50.4631 158.435 47.6379C157.418 47.8473 155.46 48.6303 153.894 49.0219C152.775 49.3314 151.77 49.528 150.258 49.727L146.975 50.1448C145.701 50.3039 144.707 50.682 143.99 51.2788C143.314 51.8757 142.976 52.6318 142.976 53.547C142.976 54.4622 143.374 55.1983 144.169 55.7554C144.965 56.2727 146.099 56.5314 147.572 56.5314Z" fill="#212121"/>
<path d="M193.673 62.142C191.564 62.341 189.814 62.4405 188.421 62.4405C185.476 62.4405 183.148 62.0624 181.437 61.3064C179.726 60.5106 178.493 59.2969 177.737 57.6654C176.981 55.9942 176.603 53.7658 176.603 50.9804V39.4607H171.291V32.1788C173.161 32.1788 174.573 31.94 175.528 31.4625C176.523 30.9452 177.2 30.0897 177.558 28.896C177.956 27.6624 178.155 25.8718 178.155 23.5241H186.75C186.59 25.7524 186.113 27.4634 185.317 28.6572C184.561 29.8112 183.168 30.9651 181.139 32.1191L182.966 32.1788C185.119 32.1191 185.437 32.1191 187.273 32.1788C188.839 32.1191 190.868 32.0793 193.494 32.1191V39.4607H185.437V50.6223C185.437 52.1742 185.755 53.2684 186.392 53.9051C187.028 54.5418 188.222 54.8601 189.973 54.8601C190.769 54.8601 192.002 54.7606 193.673 54.5617V62.142Z" fill="#212121"/>
<path d="M214.162 63.0373C210.978 63.0373 208.113 62.3609 205.567 61.0079C203.02 59.6152 201.011 57.7251 199.538 55.3376C198.106 52.9103 197.389 50.2045 197.389 47.2201C197.389 44.2357 198.106 41.5497 199.538 39.1622C201.011 36.7349 203.02 34.8448 205.567 33.4919C208.113 32.0992 210.978 31.4028 214.162 31.4028C216.987 31.4028 219.573 31.94 221.921 33.0144C224.309 34.0888 226.278 35.581 227.83 37.491C229.382 39.401 230.377 41.5895 230.815 44.0566H222.458C221.861 42.4252 220.847 41.1518 219.414 40.2366C218.022 39.3214 216.39 38.8638 214.52 38.8638C212.053 38.8638 210.023 39.6397 208.432 41.1916C206.88 42.7435 206.104 44.753 206.104 47.2201C206.104 49.6872 206.88 51.6967 208.432 53.2485C209.984 54.7606 212.013 55.5167 214.52 55.5167C216.509 55.5167 218.221 55.0193 219.653 54.0245C221.125 52.9899 222.12 51.5972 222.637 49.8463H230.934C230.536 52.393 229.561 54.681 228.009 56.7104C226.457 58.7 224.488 60.2519 222.1 61.3661C219.713 62.4802 217.067 63.0373 214.162 63.0373Z" fill="#212121"/>
<path d="M251.496 63.0373C248.273 63.0373 245.368 62.3609 242.782 61.0079C240.235 59.6152 238.226 57.7251 236.754 55.3376C235.321 52.9501 234.605 50.2443 234.605 47.2201C234.605 44.1959 235.321 41.4901 236.754 39.1026C238.226 36.6753 240.255 34.7851 242.842 33.4322C245.428 32.0793 248.333 31.4028 251.556 31.4028C254.819 31.4028 257.744 32.0992 260.33 33.4919C262.917 34.8448 264.926 36.7349 266.359 39.1622C267.791 41.5497 268.507 44.2556 268.507 47.2798C268.507 48.1552 268.448 49.0505 268.328 49.9657H243.2C243.598 51.8757 244.533 53.4077 246.005 54.5617C247.517 55.7156 249.348 56.2926 251.496 56.2926C253.088 56.2926 254.521 55.9942 255.794 55.3973C257.067 54.7606 258.102 53.8653 258.898 52.7114H267.672C266.478 55.8947 264.429 58.4215 261.524 60.2917C258.659 62.1221 255.316 63.0373 251.496 63.0373ZM260.032 44.5341C259.594 42.5445 258.619 40.9728 257.107 39.8188C255.595 38.6648 253.745 38.0879 251.556 38.0879C249.368 38.0879 247.517 38.6847 246.005 39.8785C244.533 41.0325 243.578 42.5843 243.14 44.5341H260.032Z" fill="#212121"/>
<path d="M272.353 32.1191H281.067C280.988 33.2731 280.789 34.3275 280.47 35.2825C280.192 36.2375 279.714 37.292 279.038 38.446L281.485 39.7591C282.679 36.9737 284.151 34.9045 285.902 33.5516C287.692 32.1987 289.821 31.5222 292.288 31.5222C295.671 31.5222 298.297 32.716 300.167 35.1035C302.037 37.491 302.973 40.8136 302.973 45.0713V62.2614H294.139V46.6232C294.139 44.1561 293.582 42.2859 292.467 41.0126C291.393 39.6994 289.801 39.0429 287.692 39.0429C285.583 39.0429 283.972 39.6994 282.858 41.0126C281.744 42.2859 281.187 44.1561 281.187 46.6232V62.2614H272.353V32.1191Z" fill="#212121"/>
<path d="M9.65086 0H0.136892C0.82135 21.7527 17.8073 26.4613 26.2147 26.0964V16.1777C12.772 16.725 9.57101 5.62059 9.65086 0Z" fill="#212121"/>
<path d="M26.9677 12.1418L26.7623 2.35996C48.1722 1.51175 53.6843 19.3586 53.7642 28.388V58.9307C51.437 77.2632 37.3714 83.0092 30.6295 83.5906C7.3853 85.2871 0.524751 67.0139 0 57.6652V25.2072H9.54819V57.6652C11.7385 67.7891 18.2408 75.6899 30.6295 73.843C40.5405 72.3654 43.5429 63.2858 43.8053 58.9307V41.3507C44.0791 38.2953 44.2092 30.1118 42.5391 21.8211C40.869 13.5305 31.4623 11.9138 26.9677 12.1418Z" fill="#212121"/>
</svg>
