<svg width="309" height="86" viewBox="0 0 309 86" fill="none" xmlns="http://www.w3.org/2000/svg">
<path d="M102.768 63.5042C99.4403 58.3501 96.7821 54.5758 94.7935 52.1814C92.8049 49.7464 90.999 48.1231 89.3756 47.3114C87.7929 46.4591 85.8855 46.033 83.6534 46.033H83.5925V63.5042H74.096V20.8916H83.5925V37.5105H83.7142C85.9057 37.5105 87.7929 37.1047 89.3756 36.293C90.9584 35.4813 92.6832 33.9189 94.55 31.6056C96.4574 29.2924 98.9736 25.721 102.099 20.8916H112.873C109.505 26.3298 106.786 30.3678 104.716 33.0057C102.687 35.6437 100.82 37.5105 99.1156 38.6063C97.4111 39.6614 95.4428 40.2905 93.2108 40.4934V43.111C95.6458 43.2733 97.7561 43.9227 99.5418 45.059C101.368 46.1548 103.357 48.0825 105.508 50.8421C107.699 53.6018 110.56 57.8225 114.091 63.5042H102.768Z" fill="#212121"/>
<path d="M134.713 63.4433C133.333 63.565 132.055 63.6259 130.878 63.6259C126.332 63.6259 123.086 62.6925 121.138 60.8257C119.19 58.9588 118.216 55.9354 118.216 51.7553V20.8916H127.225V50.416C127.225 52.3234 127.509 53.6424 128.077 54.3729C128.686 55.0628 129.904 55.4078 131.73 55.4078C132.582 55.4078 133.577 55.3469 134.713 55.2252V63.4433Z" fill="#212121"/>
<path d="M148.133 64.2347C144.724 64.2347 142.005 63.4433 139.976 61.8605C137.988 60.2372 136.993 58.066 136.993 55.3469C136.993 52.7496 137.866 50.6189 139.611 48.955C141.356 47.2911 143.75 46.2968 146.794 45.9721L156.595 44.9981C157.772 44.8764 158.685 44.5517 159.334 44.0241C160.024 43.456 160.369 42.7458 160.369 41.8935C160.369 40.8789 159.862 40.0875 158.847 39.5194C157.833 38.9512 156.412 38.6671 154.586 38.6671C152.638 38.6671 151.035 39.0324 149.777 39.7629C148.56 40.4528 147.789 41.4674 147.464 42.8066H138.576C139.225 39.3976 140.93 36.7597 143.69 34.8929C146.49 32.9855 150.081 32.0317 154.464 32.0317C159.213 32.0317 162.865 33.1681 165.422 35.4407C168.019 37.6728 169.318 40.8789 169.318 45.059V53.5815C169.318 54.6773 169.602 55.4078 170.17 55.773C170.738 56.0977 171.854 56.1992 173.518 56.0774V63.5042C172.504 63.6259 171.55 63.6868 170.657 63.6868C166.112 63.6868 163.839 62.1243 163.839 58.9994C163.839 58.1472 163.981 57.2746 164.265 56.3818C162.347 57.9876 158.827 60.4807 156.473 61.9823C154.16 63.4839 151.38 64.2347 148.133 64.2347ZM150.508 57.6602C153.024 57.6602 155.236 56.8688 157.143 55.286C159.091 53.7033 160.572 51.4712 161.587 48.5898C160.55 48.8033 158.553 49.6019 156.956 50.0013C155.814 50.317 154.789 50.5175 153.247 50.7204L149.899 51.1465C148.6 51.3089 147.586 51.6944 146.855 52.3031C146.165 52.9119 145.82 53.683 145.82 54.6164C145.82 55.5498 146.226 56.3006 147.038 56.8688C147.849 57.3964 149.006 57.6602 150.508 57.6602Z" fill="#212121"/>
<path d="M197.527 63.3824C195.376 63.5853 193.59 63.6868 192.169 63.6868C189.166 63.6868 186.792 63.3012 185.047 62.5302C183.302 61.7185 182.044 60.4807 181.273 58.8168C180.502 57.1123 180.116 54.8396 180.116 51.9988V40.2499H174.698V32.8231C176.606 32.8231 178.046 32.5796 179.02 32.0926C180.035 31.565 180.725 30.6925 181.09 29.475C181.496 28.2169 181.699 26.3907 181.699 23.9962H190.465C190.303 26.2689 189.816 28.014 189.004 29.2315C188.233 30.4084 186.813 31.5853 184.743 32.7622L186.606 32.8231C188.802 32.7622 189.126 32.7622 190.999 32.8231C192.596 32.7622 194.665 32.7217 197.344 32.7622V40.2499H189.126V51.6335C189.126 53.2163 189.45 54.3323 190.1 54.9817C190.749 55.631 191.967 55.9557 193.752 55.9557C194.564 55.9557 195.822 55.8542 197.527 55.6513V63.3824Z" fill="#212121"/>
<path d="M218.422 64.2955C215.176 64.2955 212.254 63.6056 209.656 62.2258C207.059 60.8054 205.01 58.8777 203.508 56.4427C202.047 53.9671 201.317 51.2074 201.317 48.1636C201.317 45.1199 202.047 42.3805 203.508 39.9455C205.01 37.4699 207.059 35.5422 209.656 34.1624C212.254 32.742 215.176 32.0317 218.422 32.0317C221.304 32.0317 223.942 32.5796 226.336 33.6754C228.771 34.7711 230.78 36.293 232.363 38.241C233.946 40.189 234.96 42.4211 235.407 44.9373H226.884C226.275 43.2733 225.24 41.9747 223.779 41.0413C222.359 40.1078 220.695 39.6411 218.788 39.6411C216.271 39.6411 214.202 40.4325 212.578 42.0153C210.996 43.598 210.204 45.6475 210.204 48.1636C210.204 50.6798 210.996 52.7293 212.578 54.312C214.161 55.8542 216.231 56.6253 218.788 56.6253C220.817 56.6253 222.562 56.118 224.023 55.1034C225.525 54.0482 226.539 52.6278 227.067 50.8421H235.528C235.122 53.4395 234.128 55.773 232.545 57.8428C230.963 59.872 228.954 61.4547 226.519 62.591C224.084 63.7274 221.385 64.2955 218.422 64.2955Z" fill="#212121"/>
<path d="M256.5 64.2955C253.213 64.2955 250.25 63.6056 247.612 62.2258C245.015 60.8054 242.965 58.8777 241.464 56.4427C240.003 54.0077 239.272 51.248 239.272 48.1636C239.272 45.0793 240.003 42.3196 241.464 39.8846C242.965 37.409 245.035 35.4813 247.673 34.1015C250.311 32.7217 253.273 32.0317 256.561 32.0317C259.889 32.0317 262.871 32.742 265.509 34.1624C268.147 35.5422 270.197 37.4699 271.658 39.9455C273.119 42.3805 273.849 45.1402 273.849 48.2245C273.849 49.1174 273.788 50.0305 273.667 50.9639H248.038C248.444 52.9119 249.398 54.4744 250.899 55.6513C252.441 56.8282 254.308 57.4167 256.5 57.4167C258.123 57.4167 259.584 57.1123 260.883 56.5035C262.181 55.8542 263.237 54.9411 264.048 53.7641H272.997C271.779 57.0108 269.689 59.5879 266.727 61.4953C263.805 63.3621 260.396 64.2955 256.5 64.2955ZM265.205 45.4243C264.759 43.3951 263.764 41.7921 262.222 40.6151C260.68 39.4382 258.793 38.8498 256.561 38.8498C254.329 38.8498 252.441 39.4585 250.899 40.676C249.398 41.8529 248.424 43.4357 247.977 45.4243H265.205Z" fill="#212121"/>
<path d="M277.771 32.7622H286.659C286.578 33.9392 286.375 35.0146 286.05 35.9886C285.766 36.9626 285.279 38.0381 284.589 39.215L287.085 40.5543C288.302 37.7134 289.804 35.6031 291.59 34.2232C293.416 32.8434 295.587 32.1535 298.103 32.1535C301.553 32.1535 304.231 33.371 306.139 35.806C308.046 38.241 309 41.6297 309 45.9721V63.5042H299.99V47.5549C299.99 45.0387 299.422 43.1313 298.286 41.8326C297.19 40.4934 295.567 39.8238 293.416 39.8238C291.265 39.8238 289.621 40.4934 288.485 41.8326C287.349 43.1313 286.781 45.0387 286.781 47.5549V63.5042H277.771V32.7622Z" fill="#212121"/>
<path d="M9.84284 0H0.139615C0.837689 22.1854 18.1616 26.9876 26.7362 26.6156V16.4996C13.0261 17.0577 9.7614 5.7324 9.84284 0Z" fill="#212121"/>
<path d="M27.5041 12.3834L27.2947 2.40691C49.1305 1.54182 54.7523 19.7437 54.8337 28.9527V60.103C52.4603 78.8002 38.1148 84.6605 31.2388 85.2535C7.53222 86.9837 0.53519 68.347 0 58.8124V25.7086H9.73813V58.8124C11.972 69.1377 18.6037 77.1956 31.2388 75.3119C41.3469 73.805 44.4091 64.5448 44.6767 60.103V42.1733C44.956 39.0571 45.0886 30.7108 43.3853 22.2552C41.682 13.7996 32.0881 12.1508 27.5041 12.3834Z" fill="#212121"/>
</svg>
