<svg width="19" height="16" viewBox="0 0 19 16" fill="none" xmlns="http://www.w3.org/2000/svg">
<path d="M0.398362 7.44284L4.55684 8.85504L14.4307 2.81879C14.574 2.73161 14.7206 2.92598 14.5973 3.03963L7.12232 9.91985L6.84466 13.7716C6.84012 13.8361 6.85531 13.9005 6.8882 13.9562C6.92109 14.0119 6.97014 14.0563 7.02883 14.0834C7.08753 14.1106 7.1531 14.1193 7.21685 14.1084C7.28059 14.0974 7.33951 14.0674 7.38577 14.0222L9.68715 11.7589L13.8947 14.9436C14.348 15.2871 15.0047 15.045 15.1267 14.4897L18.0564 1.18768C18.2237 0.428952 17.4798 -0.211609 16.7546 0.0660532L0.377699 6.33735C-0.1363 6.5343 -0.122094 7.26591 0.398362 7.44284Z" fill="#212121"/>
</svg>
