<svg width="12" height="14" viewBox="0 0 12 14" fill="none" xmlns="http://www.w3.org/2000/svg">
<path d="M5.97312 0.814941C2.86556 0.814941 0.345703 3.37267 0.345703 6.52718C0.345703 9.13772 2.47598 11.6256 4.11549 13.1531C4.61935 13.6249 5.28322 13.8873 5.97282 13.8873C6.66242 13.8873 7.32628 13.6249 7.83014 13.1531C9.46905 11.6256 11.5999 9.13772 11.5999 6.52718C11.6005 3.37267 9.08068 0.814941 5.97312 0.814941ZM5.97312 8.9562C5.30979 8.9562 4.67364 8.69216 4.20459 8.22217C3.73555 7.75218 3.47205 7.11474 3.47205 6.45008C3.47205 5.78541 3.73555 5.14797 4.20459 4.67798C4.67364 4.20799 5.30979 3.94395 5.97312 3.94395C6.63645 3.94395 7.2726 4.20799 7.74165 4.67798C8.21069 5.14797 8.47419 5.78541 8.47419 6.45008C8.47419 7.11474 8.21069 7.75218 7.74165 8.22217C7.2726 8.69216 6.63645 8.9562 5.97312 8.9562Z" fill="#212121"/>
</svg>
