<svg width="25" height="15" viewBox="0 0 25 15" fill="none" xmlns="http://www.w3.org/2000/svg">
<path fill-rule="evenodd" clip-rule="evenodd" d="M21.5161 8.99576C22.3453 9.80541 23.2206 10.5672 23.9644 11.4585C24.293 11.8545 24.604 12.2633 24.842 12.7229C25.1792 13.3763 24.8738 14.0954 24.2879 14.1344L20.6458 14.1328C19.7064 14.2107 18.9571 13.8326 18.327 13.1903C17.8227 12.6767 17.3558 12.13 16.8709 11.5991C16.6721 11.3821 16.4641 11.1779 16.2155 11.0165C15.7183 10.6938 15.2868 10.7926 15.0026 11.3111C14.7133 11.8385 14.6476 12.4225 14.6192 13.0103C14.5802 13.868 14.321 14.0934 13.4595 14.1327C11.6184 14.2195 9.87113 13.941 8.24797 13.0122C6.81694 12.1935 5.70723 11.0376 4.74135 9.72902C2.86077 7.18097 1.42061 4.38108 0.126258 1.50274C-0.165091 0.854252 0.0479794 0.506144 0.763497 0.493823C1.95165 0.470742 3.13963 0.472385 4.32918 0.492181C4.81208 0.499245 5.13176 0.776219 5.31822 1.23242C5.96104 2.81303 6.74761 4.31685 7.73493 5.71075C7.99786 6.08186 8.26596 6.45297 8.64775 6.71417C9.07011 7.00338 9.39169 6.90753 9.59038 6.43703C9.71647 6.1387 9.77166 5.81737 9.80008 5.49785C9.89422 4.39857 9.90662 3.30119 9.74152 2.20578C9.64016 1.52213 9.25509 1.07956 8.57292 0.950191C8.22481 0.884233 8.27664 0.754699 8.44519 0.556003C8.73794 0.213317 9.01327 0 9.56213 0H13.6782C14.3262 0.127891 14.4701 0.418994 14.5588 1.07102L14.5624 5.64315C14.5553 5.89557 14.6885 6.6446 15.1431 6.81167C15.507 6.93061 15.7468 6.63951 15.9652 6.40878C16.9507 5.36281 17.654 4.12669 18.2824 2.84671C18.5613 2.28389 18.801 1.69939 19.0334 1.11537C19.2056 0.682005 19.4757 0.46877 19.9639 0.478217L23.9254 0.481748C24.0428 0.481748 24.1617 0.483474 24.2755 0.502941C24.943 0.616704 25.1259 0.903864 24.9198 1.55572C24.5949 2.57844 23.9628 3.43072 23.3448 4.28695C22.6842 5.20108 21.9776 6.08391 21.3225 7.00347C20.7205 7.84318 20.7683 8.26645 21.5161 8.99576Z" fill="#212121"/>
</svg>
