<svg width="16" height="16" viewBox="0 0 16 16" fill="none" xmlns="http://www.w3.org/2000/svg">
<path d="M4.13028 14.9983C5.31531 15.6562 6.64858 16.001 8.004 16C12.4211 16 16 12.4131 16 7.996C16 3.57886 12.4211 0 8.004 0C3.58686 0 0 3.57886 0 7.996C0 9.41657 0.372571 10.7366 1.01714 11.8931L0 16L4.13028 14.9983ZM4.57257 4.464C4.66574 4.37681 4.77871 4.31357 4.90175 4.27973C5.02478 4.24588 5.1542 4.24245 5.27886 4.26971L5.53543 4.324C5.79143 4.37829 6.00114 4.54914 6.10171 4.78229L6.60628 5.9C6.6675 6.03444 6.68837 6.18375 6.66636 6.32982C6.64435 6.47589 6.5804 6.61243 6.48228 6.72286L6.172 7.088C6.12149 7.14732 6.09001 7.22046 6.08165 7.29792C6.07329 7.37538 6.08845 7.45356 6.12514 7.52228C7.04114 9.168 8.24457 9.704 8.78 9.86686C8.85715 9.89179 8.94044 9.89007 9.0165 9.86199C9.09257 9.83391 9.15699 9.78109 9.19943 9.712L9.42457 9.36228C9.64171 9.02857 10.0691 8.912 10.5423 9.14514L11.4737 9.61086C11.8314 9.78171 11.9937 10.2006 11.8623 10.5737C11.3886 11.9474 10.1777 11.7766 10.1777 11.7766C7.492 11.7069 5.38743 9.23028 4.47943 7.95714C4.06 7.35943 3.804 6.63714 3.88171 5.9C3.95943 5.17028 4.30057 4.712 4.57257 4.464Z" fill="#212121"/>
</svg>
