<svg width="125" height="53" viewBox="0 0 125 53" fill="none" xmlns="http://www.w3.org/2000/svg">
<path d="M95.5723 52.8575V51.6592H95.8747C96.1911 51.1801 96.3399 50.6077 96.2975 50.0332V49.3253H98.2144V51.6592H98.6371V52.8612H98.2727V51.991H95.9148V52.8575H95.5723ZM96.3011 51.6555H97.8499V49.646H96.6801V50.1364C96.69 50.6661 96.5645 51.1894 96.3157 51.6555H96.3011ZM99.2165 52.0242C99.1196 52.0256 99.0228 52.0145 98.9286 51.991L98.9724 51.6518C99.0312 51.6711 99.0927 51.6811 99.1546 51.6813C99.2558 51.6814 99.3545 51.6495 99.4368 51.59C99.5192 51.5305 99.581 51.4464 99.6138 51.3495C99.7337 50.9876 99.7844 50.606 99.7632 50.2249V49.3253H101.651V51.9947H101.268V49.6497H100.135V50.365C100.157 50.7864 100.085 51.2073 99.9235 51.5965C99.8621 51.7316 99.7617 51.8448 99.6355 51.9211C99.5093 51.9974 99.3633 52.0334 99.2165 52.0242ZM102.496 51.9947L103.2 50.9107C103.016 50.8774 102.848 50.7842 102.722 50.6452C102.604 50.5035 102.543 50.3218 102.551 50.1364C102.547 50.0219 102.569 49.908 102.616 49.8037C102.663 49.6994 102.733 49.6075 102.821 49.5354C103.034 49.3865 103.29 49.3127 103.55 49.3253H104.683V51.9947H104.297V50.9439H103.604L102.956 51.9947H102.496ZM103.59 50.6157H104.319V49.6497H103.59C103.163 49.6497 102.952 49.812 102.952 50.1364C102.952 50.4609 103.163 50.6157 103.59 50.6157ZM106.961 52.0279C106.864 52.0295 106.767 52.0183 106.673 51.9947L106.716 51.6555C106.775 51.6748 106.837 51.6848 106.899 51.685C107 51.684 107.098 51.6517 107.18 51.5923C107.262 51.5329 107.324 51.4494 107.358 51.3532C107.478 50.9913 107.528 50.6096 107.507 50.2286V49.3289H109.395V51.9984H109.012V49.6534H107.879V50.3687C107.901 50.7901 107.829 51.211 107.668 51.6002C107.606 51.7353 107.506 51.8484 107.38 51.9248C107.253 52.0011 107.107 52.0371 106.961 52.0279ZM112.744 52.0684C112.572 52.0733 112.4 52.0432 112.239 51.9799C112.078 51.9165 111.931 51.8213 111.807 51.6997C111.554 51.4558 111.405 51.1209 111.392 50.7669H110.794V51.9947H110.43V49.3253H110.794V50.4314H111.403C111.441 50.1012 111.598 49.7968 111.844 49.576C112.092 49.3545 112.413 49.236 112.744 49.2441C112.925 49.2376 113.106 49.27 113.273 49.3393C113.441 49.4086 113.592 49.5131 113.717 49.646C113.967 49.9188 114.106 50.277 114.106 50.6489C114.106 51.0209 113.967 51.3791 113.717 51.6518C113.592 51.7847 113.441 51.8892 113.273 51.9585C113.106 52.0278 112.925 52.0603 112.744 52.0537V52.0684ZM112.063 51.4232C112.15 51.5194 112.256 51.5962 112.374 51.6488C112.493 51.7013 112.62 51.7284 112.75 51.7284C112.879 51.7284 113.006 51.7013 113.125 51.6488C113.243 51.5962 113.349 51.5194 113.436 51.4232C113.616 51.2099 113.708 50.9358 113.695 50.6563C113.706 50.3759 113.614 50.1014 113.436 49.8857C113.349 49.7895 113.243 49.7127 113.125 49.6601C113.006 49.6076 112.879 49.5805 112.75 49.5805C112.62 49.5805 112.493 49.6076 112.374 49.6601C112.256 49.7127 112.15 49.7895 112.063 49.8857C111.884 50.101 111.791 50.3755 111.8 50.6563C111.788 50.9363 111.882 51.2104 112.063 51.4232ZM114.486 52.8575V51.6592H114.789C115.106 51.1806 115.256 50.6081 115.215 50.0332V49.3253H117.132V51.6592H117.555V52.8612H117.19V51.991H114.832V52.8575H114.486ZM115.215 51.6555H116.742V49.646H115.576V50.1364C115.586 50.6661 115.46 51.1894 115.211 51.6555H115.215ZM119.42 52.0611C119.239 52.0661 119.058 52.0329 118.89 51.9638C118.722 51.8946 118.57 51.7909 118.444 51.6592C118.316 51.527 118.216 51.37 118.149 51.1977C118.083 51.0253 118.052 50.8412 118.057 50.6563C118.05 50.4731 118.078 50.2902 118.141 50.1181C118.203 49.946 118.299 49.7881 118.422 49.6534C118.544 49.5236 118.691 49.4209 118.854 49.3517C119.017 49.2825 119.193 49.2484 119.369 49.2515C119.541 49.2408 119.714 49.2683 119.874 49.332C120.035 49.3957 120.18 49.494 120.299 49.6202C120.525 49.8813 120.644 50.2206 120.63 50.5678C120.63 50.6452 120.63 50.7042 120.63 50.7522H118.444C118.448 51.01 118.551 51.2561 118.732 51.438C118.82 51.5295 118.925 51.6019 119.042 51.6507C119.158 51.6996 119.283 51.7238 119.409 51.7219C119.586 51.7244 119.76 51.6785 119.912 51.5891C120.05 51.5085 120.168 51.3961 120.255 51.261L120.543 51.4859C120.413 51.6657 120.242 51.8112 120.045 51.91C119.847 52.0088 119.63 52.0581 119.409 52.0537L119.42 52.0611ZM118.462 50.4498H120.262C120.26 50.2157 120.172 49.9908 120.014 49.8193C119.933 49.7368 119.834 49.6727 119.726 49.6314C119.618 49.5901 119.503 49.5725 119.388 49.5797C119.27 49.5772 119.153 49.5988 119.044 49.6432C118.935 49.6875 118.837 49.7537 118.753 49.8378C118.584 49.9977 118.48 50.2161 118.462 50.4498ZM121.472 51.991V49.3216H121.858V51.4564L123.422 49.3216H123.837V51.991H123.473V49.8341L121.902 51.991H121.472ZM123.203 48.5067C123.044 48.6448 122.84 48.7172 122.631 48.7095C122.425 48.7182 122.223 48.647 122.066 48.5104C121.99 48.4437 121.928 48.3624 121.884 48.2712C121.84 48.1801 121.814 48.0809 121.807 47.9795L122.066 47.9279C122.088 48.0626 122.158 48.1845 122.263 48.2708C122.365 48.3572 122.494 48.4031 122.627 48.3998C122.76 48.4018 122.889 48.356 122.992 48.2708C123.095 48.1842 123.164 48.0622 123.185 47.9279L123.444 47.9795C123.431 48.1835 123.339 48.3742 123.189 48.5104L123.203 48.5067Z" fill="#212121"/>
<path d="M33.0365 17.1714V0.985163H44.5086V4.67224H37.1253V6.67801H40.0699C40.8429 6.67217 41.6115 6.79678 42.3439 7.04672C42.9675 7.25041 43.5447 7.57754 44.0422 8.00905C44.4906 8.4095 44.8742 8.87853 45.1792 9.39908C45.4764 9.90188 45.6663 10.462 45.7368 11.0435C45.806 11.6227 45.806 12.2083 45.7368 12.7875C45.6689 13.3724 45.4775 13.9358 45.1755 14.4393C44.8688 14.9608 44.4854 15.432 44.0385 15.8367C43.5437 16.2745 42.9658 16.6057 42.3403 16.8101C41.6078 17.06 40.8393 17.1847 40.0663 17.1788L33.0365 17.1714ZM37.1253 13.4844H40.0408C40.376 13.4917 40.7071 13.4076 40.9992 13.241C41.2464 13.1088 41.4474 12.9028 41.575 12.6511C41.6886 12.4131 41.7472 12.1521 41.7463 11.8879C41.7461 11.6229 41.685 11.3616 41.5677 11.1246C41.4379 10.8745 41.2375 10.6692 40.9919 10.5347C40.7072 10.3778 40.3868 10.299 40.0626 10.3061H37.1472V13.4733L37.1253 13.4844ZM48.8927 17.1714V0.985163H69.0018V4.67224H52.967V6.93611H68.5062V10.6232H52.9816V13.4438H69.2095V17.1309L48.8927 17.1714ZM71.4544 17.1714V16.5741L78.6518 0.778687H83.7866L91.0095 16.5741L91.2792 17.1714H87.0154L82.9083 7.68827L75.4485 17.1714H71.4544ZM93.648 17.1714V0.985163H97.7369V5.84105H100.685C101.458 5.83324 102.225 5.96561 102.952 6.23188C103.584 6.45498 104.164 6.80911 104.654 7.27163C105.106 7.71192 105.489 8.21915 105.791 8.77596C106.093 9.32877 106.285 9.9364 106.356 10.5642C106.421 11.1868 106.421 11.8146 106.356 12.4372C106.287 13.0666 106.095 13.6757 105.791 14.2292C105.49 14.7832 105.109 15.2889 104.661 15.7298C104.167 16.193 103.586 16.5505 102.952 16.7806C102.225 17.0484 101.455 17.1808 100.681 17.1714H93.648ZM97.7369 13.4844H100.652C100.955 13.4897 101.253 13.4133 101.516 13.2631C101.753 13.1296 101.949 12.9316 102.081 12.6916C102.211 12.4532 102.303 12.1957 102.354 11.9284C102.416 11.653 102.416 11.3669 102.354 11.0914C102.296 10.8239 102.199 10.5666 102.066 10.3282C101.932 10.0872 101.734 9.88919 101.494 9.75673C101.24 9.61425 100.954 9.54059 100.663 9.54287H97.7478V13.4733L97.7369 13.4844ZM107.941 17.1714V0.985163H112.063V17.1714H107.941ZM114.34 17.1714V0.985163H124.325V4.67224H118.444V6.93611H123.863V10.6232H118.444V13.4438H124.548V17.1309L114.34 17.1714ZM26.5205 42.4427V37.0411H28.1531L33.6196 24.2433H35.3797L41.0502 37.0411H42.712V42.4427H39.3556V40.6839H29.8805V42.4427H26.5205ZM32.2821 36.9858H36.8083L34.5015 31.1455L32.2821 36.9858ZM44.7783 40.636V24.4534H54.7636V28.1405H48.8672V30.4081H54.2826V34.0951H48.8672V36.9158H54.9713V40.6028L44.7783 40.636ZM58.5026 40.636V24.4534H62.6863V30.3269H67.6242V24.4534H71.8042V40.636H67.6242V34.1394H62.6863V40.636H58.5026ZM75.8895 40.636V24.4534H79.9929V29.3093H95.8819C96.6566 29.302 97.4264 29.4331 98.156 29.6965C98.7869 29.9226 99.365 30.2778 99.8542 30.7399C100.306 31.178 100.689 31.6842 100.988 32.2405C101.293 32.792 101.485 33.4002 101.552 34.0288C101.618 34.6514 101.618 35.2792 101.552 35.9018C101.485 36.5315 101.293 37.141 100.988 37.6937C100.689 38.2512 100.306 38.7587 99.8542 39.1981C99.3642 39.6601 98.7864 40.0164 98.156 40.2452C97.4276 40.5142 96.6572 40.6479 95.8819 40.6397H75.8895V40.636ZM79.9783 36.9489H95.8637C96.1655 36.9542 96.4633 36.8792 96.7274 36.7314C96.9633 36.596 97.1584 36.3985 97.2923 36.1599C97.4193 35.9192 97.5102 35.6608 97.5619 35.393C97.6184 35.1169 97.6184 34.8321 97.5619 34.556C97.5041 34.288 97.4057 34.0306 97.2704 33.7928C97.1339 33.5521 96.9331 33.3553 96.691 33.225C96.4389 33.0801 96.1536 33.0051 95.8637 33.0075H79.9929L79.9783 36.9489ZM103.218 40.636V24.4534H113.181V28.1405H107.398V40.636H103.218ZM114.566 40.6618V26.3633L118.746 24.4534V32.388L122.788 24.376H124.271V40.636H120.043V32.6793L116.035 40.6618H114.566Z" fill="#212121"/>
<path d="M21.988 1.59265H8.46777V17.4102H21.988V1.59265Z" stroke="#212121" stroke-width="0.351053" stroke-miterlimit="10"/>
<path d="M0.734375 9.50793C6.1607 15.1529 4.52077 15.1529 8.59143 9.72179" stroke="#212121" stroke-width="0.874552" stroke-miterlimit="10"/>
<path d="M16.2594 9.49792C10.8331 15.1355 12.473 15.1355 8.40234 9.71546" stroke="#212121" stroke-width="0.874552" stroke-miterlimit="10"/>
<path d="M13.7344 13.7492C19.1643 8.11162 17.5208 8.11162 21.5914 13.5316" stroke="#212121" stroke-width="0.874552" stroke-miterlimit="10"/>
<path d="M29.1929 13.7637C23.763 8.12614 25.4065 8.12614 21.3213 13.5461" stroke="#212121" stroke-width="0.874552" stroke-miterlimit="10"/>
</svg>
